<?xml version="1.0" standalone="no"?>
<!DOCTYPE svg PUBLIC "-//W3C//DTD SVG 20010904//EN"
 "http://www.w3.org/TR/2001/REC-SVG-20010904/DTD/svg10.dtd">
<svg version="1.0" xmlns="http://www.w3.org/2000/svg"
 width="700.000000pt" height="700.000000pt" viewBox="0 0 700.000000 700.000000"
 preserveAspectRatio="xMidYMid meet">
<metadata>
Created by potrace 1.14, written by Peter Selinger 2001-2017
</metadata>
<g transform="translate(0.000000,700.000000) scale(0.100000,-0.100000)"
fill="#000000" stroke="none">
<path d="M321 6839 c-178 -88 -322 -161 -320 -163 2 -2 148 -76 324 -166 176
-89 322 -166 325 -170 4 -6 4 -1026 1 -1075 -1 -5 -21 -18 -45 -28 -83 -34
-162 -134 -184 -234 -5 -23 -10 -216 -10 -428 l0 -385 339 0 339 0 0 400 c-1
438 -2 450 -62 538 -33 48 -93 95 -144 114 -32 11 -34 15 -35 58 0 48 0 834 1
887 0 22 5 33 18 36 9 2 71 -24 137 -58 66 -35 190 -98 275 -140 85 -43 157
-80 159 -82 3 -2 5 -295 5 -651 l1 -647 575 -107 c544 -101 934 -173 990 -183
14 -3 36 -7 50 -10 14 -3 52 -10 85 -15 33 -6 127 -23 210 -38 l150 -28 100
18 c55 11 168 32 251 48 83 16 173 32 200 36 27 3 52 8 55 10 4 2 24 6 45 10
22 3 95 16 164 29 112 22 697 130 760 141 14 3 59 11 100 19 41 8 89 17 105
20 17 2 55 9 85 15 30 6 69 13 85 16 17 3 46 8 65 12 l35 8 1 647 c0 356 3
649 5 651 2 2 92 47 199 101 107 54 258 130 335 170 77 40 311 159 520 265
209 106 382 194 384 196 2 2 -143 76 -323 164 l-328 160 -2851 -1 -2852 -1
-324 -159z"/>
</g>
</svg>
