<svg  viewBox="0 0 48 48"  xmlns="http://www.w3.org/2000/svg">
<path d="M24 3C12.4031 3 3 12.6469 3 24.5344C3 34.05 9.01874 42.1124 17.3625 44.9626C17.4937 44.9906 17.6062 45 17.7188 45C18.4969 45 18.7969 44.4282 18.7969 43.9312C18.7969 43.4156 18.7781 42.0656 18.7687 40.2656C17.9812 40.4438 17.2781 40.5188 16.65 40.5188C12.6094 40.5188 11.6906 37.3782 11.6906 37.3782C10.7344 34.8938 9.35626 34.2282 9.35626 34.2282C7.52812 32.9438 9.34688 32.9062 9.4875 32.9062H9.49688C11.6063 33.0938 12.7125 35.1374 12.7125 35.1374C13.7625 36.975 15.1687 37.4906 16.425 37.4906C17.4094 37.4906 18.3 37.1718 18.825 36.9282C19.0125 35.5406 19.5562 34.5938 20.1562 34.05C15.4969 33.5062 10.5938 31.6594 10.5938 23.4094C10.5938 21.0562 11.4094 19.1344 12.75 17.6344C12.5344 17.0906 11.8125 14.8969 12.9562 11.9344C12.9562 11.9344 13.1062 11.8875 13.425 11.8875C14.1844 11.8875 15.9 12.1781 18.7313 14.1469C20.4094 13.6687 22.2 13.4344 23.9906 13.425C25.7718 13.4344 27.5718 13.6687 29.25 14.1469C32.0812 12.1781 33.7968 11.8875 34.5562 11.8875C34.875 11.8875 35.025 11.9344 35.025 11.9344C36.1688 14.8969 35.4468 17.0906 35.2312 17.6344C36.5718 19.1438 37.3874 21.0656 37.3874 23.4094C37.3874 31.6782 32.475 33.4968 27.7968 34.0312C28.5468 34.6968 29.2218 36.0094 29.2218 38.0156C29.2218 40.8938 29.1938 43.2188 29.1938 43.9218C29.1938 44.4282 29.4844 45 30.2624 45C30.375 45 30.5062 44.9906 30.6374 44.9626C38.9906 42.1124 45 34.0406 45 24.5344C45 12.6469 35.5968 3 24 3Z" />
</svg>
